<svg xmlns="http://www.w3.org/2000/svg" viewBox="0 0 800 440" fill="none">
  <!-- Background -->
  <rect width="800" height="440" rx="12" fill="#1a1a2e"/>
  
  <!-- Title -->
  <text x="400" y="40" text-anchor="middle" fill="#e2e8f0" font-family="system-ui,sans-serif" font-size="16" font-weight="600">6 Specialized Content Types</text>
  
  <!-- Grid of 6 content type cards -->
  <!-- Row 1 -->
  <!-- Card 1: Standard SEO Article -->
  <rect x="24" y="64" width="240" height="160" rx="10" fill="#1e293b"/>
  <rect x="24" y="64" width="240" height="4" rx="2" fill="#4F46E5"/>
  <circle cx="52" cy="96" r="16" fill="#4F46E5" opacity="0.15"/>
  <text x="52" y="101" text-anchor="middle" fill="#818cf8" font-family="system-ui,sans-serif" font-size="14">📝</text>
  <text x="76" y="100" fill="#e2e8f0" font-family="system-ui,sans-serif" font-size="13" font-weight="600">Standard SEO Article</text>
  <text x="40" y="124" fill="#94a3b8" font-family="system-ui,sans-serif" font-size="10">SERP-optimized long-form content</text>
  <text x="40" y="140" fill="#94a3b8" font-family="system-ui,sans-serif" font-size="10">with keyword analysis and meta tags</text>
  <!-- Mini preview lines -->
  <rect x="40" y="160" width="180" height="6" rx="3" fill="#334155"/>
  <rect x="40" y="172" width="140" height="6" rx="3" fill="#334155"/>
  <rect x="40" y="184" width="160" height="6" rx="3" fill="#334155"/>
  <rect x="40" y="200" width="60" height="16" rx="8" fill="#4F46E5" opacity="0.2"/>
  <text x="70" y="212" text-anchor="middle" fill="#818cf8" font-family="system-ui,sans-serif" font-size="9">97/100</text>
  
  <!-- Card 2: Product Review -->
  <rect x="280" y="64" width="240" height="160" rx="10" fill="#1e293b"/>
  <rect x="280" y="64" width="240" height="4" rx="2" fill="#06B6D4"/>
  <circle cx="308" cy="96" r="16" fill="#06B6D4" opacity="0.15"/>
  <text x="308" y="101" text-anchor="middle" fill="#67e8f9" font-family="system-ui,sans-serif" font-size="14">⭐</text>
  <text x="332" y="100" fill="#e2e8f0" font-family="system-ui,sans-serif" font-size="13" font-weight="600">Product Review</text>
  <text x="296" y="124" fill="#94a3b8" font-family="system-ui,sans-serif" font-size="10">In-depth product analysis with</text>
  <text x="296" y="140" fill="#94a3b8" font-family="system-ui,sans-serif" font-size="10">pros, cons, and verdict scoring</text>
  <rect x="296" y="160" width="180" height="6" rx="3" fill="#334155"/>
  <rect x="296" y="172" width="140" height="6" rx="3" fill="#334155"/>
  <rect x="296" y="184" width="160" height="6" rx="3" fill="#334155"/>
  <rect x="296" y="200" width="60" height="16" rx="8" fill="#06B6D4" opacity="0.2"/>
  <text x="326" y="212" text-anchor="middle" fill="#67e8f9" font-family="system-ui,sans-serif" font-size="9">95/100</text>
  
  <!-- Card 3: Comparison -->
  <rect x="536" y="64" width="240" height="160" rx="10" fill="#1e293b"/>
  <rect x="536" y="64" width="240" height="4" rx="2" fill="#8b5cf6"/>
  <circle cx="564" cy="96" r="16" fill="#8b5cf6" opacity="0.15"/>
  <text x="564" y="101" text-anchor="middle" fill="#c4b5fd" font-family="system-ui,sans-serif" font-size="14">⚖️</text>
  <text x="588" y="100" fill="#e2e8f0" font-family="system-ui,sans-serif" font-size="13" font-weight="600">X vs Y Comparison</text>
  <text x="552" y="124" fill="#94a3b8" font-family="system-ui,sans-serif" font-size="10">Side-by-side product analysis</text>
  <text x="552" y="140" fill="#94a3b8" font-family="system-ui,sans-serif" font-size="10">with comparison tables and winner</text>
  <rect x="552" y="160" width="180" height="6" rx="3" fill="#334155"/>
  <rect x="552" y="172" width="140" height="6" rx="3" fill="#334155"/>
  <rect x="552" y="184" width="160" height="6" rx="3" fill="#334155"/>
  <rect x="552" y="200" width="60" height="16" rx="8" fill="#8b5cf6" opacity="0.2"/>
  <text x="582" y="212" text-anchor="middle" fill="#c4b5fd" font-family="system-ui,sans-serif" font-size="9">93/100</text>
  
  <!-- Row 2 -->
  <!-- Card 4: Affiliate Roundup -->
  <rect x="24" y="244" width="240" height="160" rx="10" fill="#1e293b"/>
  <rect x="24" y="244" width="240" height="4" rx="2" fill="#f59e0b"/>
  <circle cx="52" cy="276" r="16" fill="#f59e0b" opacity="0.15"/>
  <text x="52" y="281" text-anchor="middle" fill="#fcd34d" font-family="system-ui,sans-serif" font-size="14">🏆</text>
  <text x="76" y="280" fill="#e2e8f0" font-family="system-ui,sans-serif" font-size="13" font-weight="600">Affiliate Roundup</text>
  <text x="40" y="304" fill="#94a3b8" font-family="system-ui,sans-serif" font-size="10">Top N best products lists with</text>
  <text x="40" y="320" fill="#94a3b8" font-family="system-ui,sans-serif" font-size="10">affiliate links and buying guides</text>
  <rect x="40" y="340" width="180" height="6" rx="3" fill="#334155"/>
  <rect x="40" y="352" width="140" height="6" rx="3" fill="#334155"/>
  <rect x="40" y="364" width="160" height="6" rx="3" fill="#334155"/>
  <rect x="40" y="380" width="60" height="16" rx="8" fill="#f59e0b" opacity="0.2"/>
  <text x="70" y="392" text-anchor="middle" fill="#fcd34d" font-family="system-ui,sans-serif" font-size="9">96/100</text>
  
  <!-- Card 5: Best X for Y -->
  <rect x="280" y="244" width="240" height="160" rx="10" fill="#1e293b"/>
  <rect x="280" y="244" width="240" height="4" rx="2" fill="#22c55e"/>
  <circle cx="308" cy="276" r="16" fill="#22c55e" opacity="0.15"/>
  <text x="308" y="281" text-anchor="middle" fill="#86efac" font-family="system-ui,sans-serif" font-size="14">🎯</text>
  <text x="332" y="280" fill="#e2e8f0" font-family="system-ui,sans-serif" font-size="13" font-weight="600">Best X for Y</text>
  <text x="296" y="304" fill="#94a3b8" font-family="system-ui,sans-serif" font-size="10">Targeted recommendations for</text>
  <text x="296" y="320" fill="#94a3b8" font-family="system-ui,sans-serif" font-size="10">specific audiences and use cases</text>
  <rect x="296" y="340" width="180" height="6" rx="3" fill="#334155"/>
  <rect x="296" y="352" width="140" height="6" rx="3" fill="#334155"/>
  <rect x="296" y="364" width="160" height="6" rx="3" fill="#334155"/>
  <rect x="296" y="380" width="60" height="16" rx="8" fill="#22c55e" opacity="0.2"/>
  <text x="326" y="392" text-anchor="middle" fill="#86efac" font-family="system-ui,sans-serif" font-size="9">94/100</text>
  
  <!-- Card 6: Authority Post -->
  <rect x="536" y="244" width="240" height="160" rx="10" fill="#1e293b"/>
  <rect x="536" y="244" width="240" height="4" rx="2" fill="#ec4899"/>
  <circle cx="564" cy="276" r="16" fill="#ec4899" opacity="0.15"/>
  <text x="564" y="281" text-anchor="middle" fill="#f9a8d4" font-family="system-ui,sans-serif" font-size="14">👑</text>
  <text x="588" y="280" fill="#e2e8f0" font-family="system-ui,sans-serif" font-size="13" font-weight="600">Authority Post</text>
  <text x="552" y="304" fill="#94a3b8" font-family="system-ui,sans-serif" font-size="10">Comprehensive industry guides</text>
  <text x="552" y="320" fill="#94a3b8" font-family="system-ui,sans-serif" font-size="10">establishing thought leadership</text>
  <rect x="552" y="340" width="180" height="6" rx="3" fill="#334155"/>
  <rect x="552" y="352" width="140" height="6" rx="3" fill="#334155"/>
  <rect x="552" y="364" width="160" height="6" rx="3" fill="#334155"/>
  <rect x="552" y="380" width="60" height="16" rx="8" fill="#ec4899" opacity="0.2"/>
  <text x="582" y="392" text-anchor="middle" fill="#f9a8d4" font-family="system-ui,sans-serif" font-size="9">91/100</text>
</svg>